<svg version="1.1" id="Layer_1" xmlns="http://www.w3.org/2000/svg" xmlns:xlink="http://www.w3.org/1999/xlink" x="0px" y="0px"
	 width="100%" viewBox="0 0 869 942" enable-background="new 0 0 869 942" xml:space="preserve">
<path fill="#000000" opacity="1.000000" stroke="none" 
	d="
M870.000000,365.000000 
	C870.000000,558.000000 870.000000,750.500000 870.000000,943.000000 
	C580.333313,943.000000 290.666656,943.000000 1.000000,943.000000 
	C1.000000,629.000000 1.000000,315.000000 1.000000,1.000000 
	C290.666656,1.000000 580.333313,1.000000 870.000000,1.000000 
	C870.000000,122.166664 870.000000,243.333328 870.000000,365.000000 
M568.065186,119.033760 
	C558.375305,119.079147 548.685425,119.124527 538.068176,119.029617 
	C523.709595,119.074936 509.351074,119.120247 494.065002,119.028824 
	C470.706299,119.074463 447.347595,119.120102 423.061493,119.031288 
	C390.371826,119.076271 357.682190,119.121262 324.065216,119.027443 
	C267.800232,119.027443 211.535248,119.027443 154.993393,119.027443 
	C154.993393,120.887627 154.993332,122.195473 154.993408,123.503311 
	C154.998581,218.503159 155.003220,313.502991 155.015472,408.502838 
	C155.015625,409.666016 155.113815,410.829193 155.011185,412.919312 
	C155.008575,451.161285 154.987503,489.403290 155.010788,527.645264 
	C155.023239,548.093140 155.112137,568.541077 155.010132,589.916077 
	C155.010132,617.175537 155.010132,644.435059 155.010132,671.832825 
	C167.724579,671.832825 179.856735,671.832825 192.916397,671.987305 
	C210.608643,671.935974 228.300888,671.884644 246.920944,671.981934 
	C256.945648,671.932373 266.970367,671.882751 277.923096,671.978271 
	C285.279480,671.932068 292.635895,671.885803 300.920380,671.986389 
	C309.945923,671.937561 318.971497,671.888794 328.925415,671.980591 
	C341.613220,671.931519 354.300995,671.882507 367.917389,671.980652 
	C381.273376,671.934692 394.629364,671.888672 408.914276,671.990234 
	C424.940613,671.937866 440.966980,671.885559 457.922607,671.971069 
	C465.945953,671.925354 473.969269,671.879639 482.921875,671.971741 
	C494.942627,671.925598 506.963379,671.879456 519.914307,671.974121 
	C533.271118,671.927185 546.627991,671.880249 560.915588,671.969238 
	C572.272583,671.923889 583.629578,671.878540 595.917847,671.963440 
	C610.268372,671.921387 624.618896,671.879333 639.902588,671.973389 
	C663.567810,671.960327 687.233459,671.869995 710.897705,672.011108 
	C714.786133,672.034241 716.036011,670.936462 716.014832,666.952820 
	C715.876587,640.954895 716.004028,614.955688 715.993835,588.956909 
	C715.987427,572.628052 715.892578,556.299194 715.922791,539.040283 
	C715.892822,514.022522 715.862854,489.004822 715.939148,463.056915 
	C715.903625,443.366302 715.868042,423.675690 715.941101,403.055298 
	C715.904846,379.698334 715.868652,356.341370 715.944214,332.055023 
	C715.907227,304.364990 715.870300,276.674988 715.948242,248.055756 
	C715.909912,221.033493 715.871643,194.011230 715.955505,166.060059 
	C715.955505,150.488434 715.955505,134.916824 715.955505,119.159859 
	C711.917847,119.159859 708.457458,119.159859 704.068481,119.028091 
	C696.709900,119.072144 689.351379,119.116196 681.064209,119.031883 
	C674.040588,119.076698 667.016907,119.121513 659.065125,119.033752 
	C649.040771,119.078667 639.016357,119.123589 628.063904,119.036392 
	C618.041321,119.080597 608.018799,119.124802 597.068237,119.031700 
	C587.709717,119.077789 578.351257,119.123886 568.065186,119.033760 
z"/>
<path fill="#B2B9BE" opacity="1.000000" stroke="none" 
	d="
M324.992523,119.166245 
	C357.682190,119.121262 390.371826,119.076271 423.456055,119.437622 
	C415.813873,134.025345 407.861084,148.255127 399.723938,162.378677 
	C378.789642,198.714035 357.731903,234.978439 336.903931,271.374481 
	C335.769714,273.356506 336.282379,276.280975 335.636108,278.847107 
	C330.848206,279.399292 327.460602,280.518524 326.275452,285.869537 
	C325.868500,287.706909 321.823608,289.610413 319.245422,289.935547 
	C310.671021,291.016876 302.002563,291.332092 293.380676,292.064972 
	C287.884949,292.532135 281.125946,298.253571 280.579468,303.115265 
	C279.920227,308.980408 283.794403,311.709381 288.569672,313.643280 
	C289.916870,314.188904 291.183411,314.933716 292.573273,315.630432 
	C293.405029,314.717285 294.232452,314.080688 294.705688,313.243805 
	C297.218903,308.799774 300.883606,307.129944 305.943268,307.942993 
	C307.463776,308.187317 309.577515,308.029846 310.653198,307.135132 
	C313.879547,304.451538 316.415802,305.521637 318.953461,308.198486 
	C317.433685,310.760498 315.867493,312.906860 314.544495,315.193939 
	C300.481293,339.504730 286.437531,363.826782 272.426331,388.167603 
	C255.430664,417.693146 238.497635,447.254822 221.489441,476.773163 
	C203.154266,508.594513 184.820206,540.416809 166.345505,572.157104 
	C162.963211,577.967957 158.910049,583.388367 155.166550,588.988953 
	C155.112137,568.541077 155.023239,548.093140 155.010788,527.645264 
	C154.987503,489.403290 155.008575,451.161285 155.413635,412.375916 
	C157.355042,409.930878 159.179169,408.194397 160.389954,406.102783 
	C177.063416,377.300323 193.616898,348.428406 210.272186,319.615387 
	C226.927109,290.802948 243.687775,262.051666 260.357025,233.247482 
	C278.776428,201.419067 297.192627,169.588547 315.492584,137.691467 
	C318.942230,131.678741 321.840088,125.349457 324.992523,119.166245 
z"/>
<path fill="#BAC0C5" opacity="1.000000" stroke="none" 
	d="
M324.528870,119.096848 
	C321.840088,125.349457 318.942230,131.678741 315.492584,137.691467 
	C297.192627,169.588547 278.776428,201.419067 260.357025,233.247482 
	C243.687775,262.051666 226.927109,290.802948 210.272186,319.615387 
	C193.616898,348.428406 177.063416,377.300323 160.389954,406.102783 
	C159.179169,408.194397 157.355042,409.930878 155.491150,411.912415 
	C155.113815,410.829193 155.015625,409.666016 155.015472,408.502838 
	C155.003220,313.502991 154.998581,218.503159 154.993408,123.503311 
	C154.993332,122.195473 154.993393,120.887627 154.993393,119.027443 
	C211.535248,119.027443 267.800232,119.027443 324.528870,119.096848 
z"/>
<path fill="#A8AFB5" opacity="1.000000" stroke="none" 
	d="
M155.088348,589.452515 
	C158.910049,583.388367 162.963211,577.967957 166.345505,572.157104 
	C184.820206,540.416809 203.154266,508.594513 221.489441,476.773163 
	C238.497635,447.254822 255.430664,417.693146 272.426331,388.167603 
	C286.437531,363.826782 300.481293,339.504730 314.544495,315.193939 
	C315.867493,312.906860 317.433685,310.760498 319.266541,308.348755 
	C322.366211,310.012756 323.203522,312.019165 323.167664,315.818909 
	C323.080658,325.030609 324.559387,334.167908 323.276459,343.529327 
	C322.794952,347.042999 322.192322,353.083618 328.396362,354.011444 
	C327.415405,360.346436 325.999023,366.415527 325.646667,372.545807 
	C325.203033,380.263855 323.788910,388.024231 326.047516,395.812561 
	C326.596222,397.704620 324.844177,400.193787 324.400116,402.457489 
	C323.199432,408.578705 321.102478,414.603516 323.346069,421.023193 
	C324.003723,422.904968 323.658875,425.338440 323.166718,427.372192 
	C322.475433,430.228546 319.543427,434.409698 320.480255,435.482483 
	C325.606384,441.352356 322.804138,446.310822 319.988739,451.560272 
	C319.764557,451.978302 319.799133,452.535126 319.368225,453.049988 
	C317.181122,455.053406 314.942627,456.793945 313.569824,459.059113 
	C309.007019,466.587769 304.784210,474.321686 300.379211,481.946899 
	C284.754974,508.993103 269.102173,536.022766 253.473633,563.066406 
	C236.597961,592.268188 219.675705,621.443359 202.915833,650.711487 
	C198.980362,657.584045 195.615967,664.783630 191.988876,671.832825 
	C179.856735,671.832825 167.724579,671.832825 155.010132,671.832825 
	C155.010132,644.435059 155.010132,617.175537 155.088348,589.452515 
z"/>
<path fill="#687582" opacity="1.000000" stroke="none" 
	d="
M715.833374,248.984955 
	C715.870300,276.674988 715.907227,304.364990 715.564331,332.605103 
	C713.976624,334.479706 712.487183,335.640015 711.604553,337.154083 
	C702.474304,352.816986 693.430359,368.530243 684.384888,384.242462 
	C668.700867,411.485992 653.067261,438.758636 637.348755,465.982208 
	C619.468262,496.950134 601.506104,527.870789 583.601135,558.824585 
	C566.612244,588.194641 549.615234,617.560120 532.701294,646.973389 
	C527.984070,655.176697 523.548767,663.542236 518.984131,671.833313 
	C506.963379,671.879456 494.942627,671.925598 482.531555,671.562744 
	C484.437225,666.921936 486.641235,662.637085 489.044647,658.467163 
	C501.912567,636.141174 514.840576,613.849792 527.727783,591.534851 
	C542.194458,566.484863 556.687866,541.449951 571.050232,516.340271 
	C573.663330,511.771790 575.703186,506.875458 578.337524,501.960236 
	C581.780579,500.748871 584.827515,499.278992 588.025208,498.784790 
	C591.358154,498.269745 593.367065,496.654999 594.885864,493.880341 
	C596.421082,491.075775 597.979065,488.280487 602.092651,490.389221 
	C602.707947,490.704651 604.176636,489.756683 605.039612,489.111206 
	C607.427795,487.324799 609.606506,485.249054 612.047119,483.544006 
	C616.237915,480.616333 617.332153,477.142151 614.867188,473.275238 
	C613.175720,474.805389 611.585815,476.730103 609.567810,477.941895 
	C607.226379,479.347961 604.509094,480.128235 601.954956,481.180145 
	C600.647766,481.699310 598.965393,481.678467 597.359009,482.017731 
	C591.223633,483.313629 585.112732,484.725464 578.998718,485.699921 
	C579.619141,483.444946 579.969238,481.438660 580.898071,479.750854 
	C583.541382,474.947845 586.464905,470.300079 589.200256,465.546448 
	C609.923828,429.532501 630.604553,393.493896 651.346313,357.490448 
	C669.764587,325.520142 688.190796,293.554047 706.757507,261.669983 
	C709.362305,257.196808 712.787781,253.201492 715.833374,248.984955 
z"/>
<path fill="#74808B" opacity="1.000000" stroke="none" 
	d="
M715.890747,248.520355 
	C712.787781,253.201492 709.362305,257.196808 706.757507,261.669983 
	C688.190796,293.554047 669.764587,325.520142 651.346313,357.490448 
	C630.604553,393.493896 609.923828,429.532501 589.200256,465.546448 
	C586.464905,470.300079 583.541382,474.947845 580.898071,479.750854 
	C579.969238,481.438660 579.619141,483.444946 578.663696,485.908325 
	C569.948669,488.841522 561.434265,488.280182 552.878845,488.090240 
	C545.996765,487.937469 539.093750,488.728699 531.537048,489.136902 
	C531.433167,488.752411 531.114258,487.572205 530.853027,485.995728 
	C533.294861,480.869751 535.461487,476.014801 538.099243,471.430969 
	C553.205444,445.180481 568.445557,419.007172 583.597595,392.782959 
	C599.498474,365.262604 615.351624,337.714630 631.224854,310.178314 
	C644.272888,287.543213 657.303040,264.897797 670.371826,242.274719 
	C684.023560,218.642624 697.682129,195.014267 711.445190,171.447037 
	C712.464294,169.701950 714.350342,168.463135 715.833374,166.988968 
	C715.871643,194.011230 715.909912,221.033493 715.890747,248.520355 
z"/>
<path fill="#9DA6AD" opacity="1.000000" stroke="none" 
	d="
M192.452637,671.910034 
	C195.615967,664.783630 198.980362,657.584045 202.915833,650.711487 
	C219.675705,621.443359 236.597961,592.268188 253.473633,563.066406 
	C269.102173,536.022766 284.754974,508.993103 300.379211,481.946899 
	C304.784210,474.321686 309.007019,466.587769 313.569824,459.059113 
	C314.942627,456.793945 317.181122,455.053406 319.493286,453.389069 
	C321.229767,456.194458 324.121826,459.286652 323.463318,461.061188 
	C321.324615,466.824249 324.275360,471.544556 325.307922,476.585114 
	C326.693268,483.348206 329.489258,489.839600 327.762970,497.019379 
	C327.096710,499.790436 327.148651,502.734192 326.871918,505.614044 
	C335.481049,506.065186 336.526611,505.172424 336.953644,497.930511 
	C337.041199,496.445587 337.453674,494.976807 337.505066,493.493225 
	C337.779083,485.587463 338.341309,477.669281 338.116211,469.774963 
	C337.889954,461.839050 336.856934,453.926117 336.501526,445.919067 
	C337.553070,445.190735 338.507355,444.679352 338.974152,443.882385 
	C347.377167,429.536865 355.721313,415.156921 364.456238,400.767334 
	C367.707123,400.502563 371.385834,398.997162 373.309418,400.230072 
	C380.666077,404.945496 387.458221,410.541595 394.139587,415.988525 
	C393.001495,417.196075 392.041077,418.140564 391.389801,419.264252 
	C379.542694,439.703735 367.743530,460.171051 355.912201,480.619690 
	C340.747772,506.829010 325.542328,533.014648 310.394135,559.233337 
	C294.497223,586.747864 278.613464,614.270142 262.794586,641.829529 
	C257.088684,651.770325 251.587662,661.828674 245.993134,671.833374 
	C228.300888,671.884644 210.608643,671.935974 192.452637,671.910034 
z"/>
<path fill="#5E6B79" opacity="1.000000" stroke="none" 
	d="
M519.449219,671.903687 
	C523.548767,663.542236 527.984070,655.176697 532.701294,646.973389 
	C549.615234,617.560120 566.612244,588.194641 583.601135,558.824585 
	C601.506104,527.870789 619.468262,496.950134 637.348755,465.982208 
	C653.067261,438.758636 668.700867,411.485992 684.384888,384.242462 
	C693.430359,368.530243 702.474304,352.816986 711.604553,337.154083 
	C712.487183,335.640015 713.976624,334.479706 715.508423,333.069794 
	C715.868652,356.341370 715.904846,379.698334 715.559265,403.602722 
	C713.875977,405.585510 712.270569,406.844208 711.318665,408.482605 
	C696.700745,433.642334 682.175415,458.855865 667.613220,484.048004 
	C652.551086,510.105164 637.455078,536.142700 622.405762,562.207214 
	C606.525635,589.710754 590.636719,617.209473 574.850525,644.766968 
	C569.734863,653.697144 564.931152,662.806091 559.984802,671.833313 
	C546.627991,671.880249 533.271118,671.927185 519.449219,671.903687 
z"/>
<path fill="#7E8993" opacity="1.000000" stroke="none" 
	d="
M715.894409,166.524506 
	C714.350342,168.463135 712.464294,169.701950 711.445190,171.447037 
	C697.682129,195.014267 684.023560,218.642624 670.371826,242.274719 
	C657.303040,264.897797 644.272888,287.543213 631.224854,310.178314 
	C615.351624,337.714630 599.498474,365.262604 583.597595,392.782959 
	C568.445557,419.007172 553.205444,445.180481 538.099243,471.430969 
	C535.461487,476.014801 533.294861,480.869751 530.477539,485.998291 
	C525.778198,488.491913 522.628296,484.114746 519.169006,484.244080 
	C511.563599,484.528564 505.537537,480.631073 499.030273,478.042786 
	C504.085724,469.015686 508.924164,460.289185 513.914307,451.650299 
	C529.135864,425.299316 544.442810,398.997711 559.665588,372.647430 
	C575.470581,345.289398 591.203247,317.889587 606.991333,290.521820 
	C621.200745,265.890747 635.439514,241.276596 649.670837,216.658188 
	C665.150452,189.880341 680.680298,163.131393 696.083862,136.309906 
	C699.289612,130.727951 702.038025,124.883400 704.997131,119.159866 
	C708.457458,119.159859 711.917847,119.159859 715.955505,119.159859 
	C715.955505,134.916824 715.955505,150.488434 715.894409,166.524506 
z"/>
<path fill="#A8AFB5" opacity="1.000000" stroke="none" 
	d="
M336.028442,278.766754 
	C336.282379,276.280975 335.769714,273.356506 336.903931,271.374481 
	C357.731903,234.978439 378.789642,198.714035 399.723938,162.378677 
	C407.861084,148.255127 415.813873,134.025345 423.919739,119.504852 
	C447.347595,119.120102 470.706299,119.074463 494.507202,119.453552 
	C494.504181,120.934235 494.165527,122.051613 493.597687,123.036880 
	C485.969452,136.272308 478.297577,149.482574 470.659180,162.712158 
	C450.899963,196.934692 431.100555,231.134216 411.444489,265.415924 
	C407.671478,271.996307 404.479431,278.909821 400.612976,285.692688 
	C393.126495,285.745819 386.046265,285.761780 378.966278,285.811401 
	C374.872589,285.840088 370.645508,286.591888 366.720734,285.806915 
	C362.145569,284.891876 358.089874,284.430176 353.849060,286.934875 
	C349.813293,289.318420 346.076752,288.070251 344.399017,283.844971 
	C342.744873,279.679108 340.082977,278.376007 336.028442,278.766754 
z"/>
<path fill="#74808B" opacity="1.000000" stroke="none" 
	d="
M456.993347,671.833252 
	C440.966980,671.885559 424.940613,671.937866 408.477905,671.552856 
	C408.842773,669.121155 409.418640,666.997314 410.479401,665.152161 
	C424.558777,640.660339 438.712616,616.211365 452.834961,591.744202 
	C467.372284,566.557922 481.805573,541.310852 496.484924,516.207703 
	C500.386841,509.535034 505.024963,503.292847 509.641235,497.068939 
	C513.358643,497.991333 516.754272,499.256409 520.162170,499.290161 
	C527.688660,499.364716 534.626099,500.810211 540.796753,505.566437 
	C544.128723,502.808777 547.455444,499.281616 552.122314,503.864075 
	C551.521606,505.631958 551.115051,507.085632 550.387146,508.355072 
	C540.061035,526.364685 529.692017,544.349792 519.331970,562.340027 
	C503.585052,589.684326 487.793091,617.002808 472.114349,644.386108 
	C466.924805,653.449768 462.025421,662.679443 456.993347,671.833252 
z"/>
<path fill="#546270" opacity="1.000000" stroke="none" 
	d="
M560.450195,671.901245 
	C564.931152,662.806091 569.734863,653.697144 574.850525,644.766968 
	C590.636719,617.209473 606.525635,589.710754 622.405762,562.207214 
	C637.455078,536.142700 652.551086,510.105164 667.613220,484.048004 
	C682.175415,458.855865 696.700745,433.642334 711.318665,408.482605 
	C712.270569,406.844208 713.875977,405.585510 715.504944,404.067627 
	C715.868042,423.675690 715.903625,443.366302 715.562500,463.607056 
	C711.535889,469.825500 707.670959,475.368195 704.272888,481.183685 
	C688.933899,507.434875 673.699402,533.747314 658.480286,560.068298 
	C642.513000,587.683411 626.546021,615.299072 610.705750,642.987061 
	C605.269226,652.489868 600.215332,662.211487 594.986572,671.833252 
	C583.629578,671.878540 572.272583,671.923889 560.450195,671.901245 
z"/>
<path fill="#808B95" opacity="1.000000" stroke="none" 
	d="
M704.532837,119.093979 
	C702.038025,124.883400 699.289612,130.727951 696.083862,136.309906 
	C680.680298,163.131393 665.150452,189.880341 649.670837,216.658188 
	C635.439514,241.276596 621.200745,265.890747 606.991333,290.521820 
	C591.203247,317.889587 575.470581,345.289398 559.665588,372.647430 
	C544.442810,398.997711 529.135864,425.299316 513.914307,451.650299 
	C508.924164,460.289185 504.085724,469.015686 498.640076,477.987366 
	C492.065002,475.338898 486.027710,472.405182 480.345764,469.258057 
	C481.416504,468.141541 482.256714,467.310883 482.829071,466.324768 
	C496.252747,443.196564 509.659393,420.058472 523.042908,396.907043 
	C530.690552,383.677826 538.347351,370.453003 545.835022,357.133453 
	C546.652222,355.679871 546.375488,353.611389 546.739136,351.508331 
	C547.676453,349.798676 548.480774,348.408813 549.624146,346.984558 
	C551.074402,345.817566 552.467102,344.851868 553.252808,343.526337 
	C560.119324,331.942596 566.927795,320.323639 573.657410,308.659760 
	C589.360474,281.442963 604.977661,254.176666 620.689880,226.965256 
	C638.563232,196.011063 656.537964,165.115326 674.375549,134.140656 
	C677.167419,129.292740 679.466064,124.160828 681.992798,119.160240 
	C689.351379,119.116196 696.709900,119.072144 704.532837,119.093979 
z"/>
<path fill="#89939C" opacity="1.000000" stroke="none" 
	d="
M366.988770,671.833435 
	C354.300995,671.882507 341.613220,671.931519 328.484985,671.547363 
	C328.704224,669.419189 329.168701,667.613708 330.056000,666.047791 
	C334.978363,657.361084 339.996307,648.728455 344.994690,640.084900 
	C373.235565,591.248779 401.456879,542.401306 429.743927,493.591888 
	C435.155914,484.253448 440.831970,475.068054 446.710541,465.903748 
	C456.361206,471.029846 466.259186,475.240021 472.979523,484.369232 
	C471.316864,487.975128 469.819427,491.297516 468.009918,494.440247 
	C453.836945,519.055359 439.602264,543.635010 425.390106,568.227600 
	C408.518524,597.421997 391.597809,626.588379 374.830170,655.842468 
	C371.884125,660.982361 369.586060,666.493652 366.988770,671.833435 
z"/>
<path fill="#4B5A69" opacity="1.000000" stroke="none" 
	d="
M595.452209,671.898315 
	C600.215332,662.211487 605.269226,652.489868 610.705750,642.987061 
	C626.546021,615.299072 642.513000,587.683411 658.480286,560.068298 
	C673.699402,533.747314 688.933899,507.434875 704.272888,481.183685 
	C707.670959,475.368195 711.535889,469.825500 715.509338,464.072144 
	C715.862854,489.004822 715.892822,514.022522 715.556030,539.595459 
	C710.938416,546.813538 706.448547,553.337402 702.478638,560.163574 
	C686.451355,587.722168 670.525208,615.340088 654.691040,643.010071 
	C649.255920,652.507812 644.199036,662.221985 638.969421,671.837280 
	C624.618896,671.879333 610.268372,671.921387 595.452209,671.898315 
z"/>
<path fill="#97A0A8" opacity="1.000000" stroke="none" 
	d="
M246.457031,671.907654 
	C251.587662,661.828674 257.088684,651.770325 262.794586,641.829529 
	C278.613464,614.270142 294.497223,586.747864 310.394135,559.233337 
	C325.542328,533.014648 340.747772,506.829010 355.912201,480.619690 
	C367.743530,460.171051 379.542694,439.703735 391.389801,419.264252 
	C392.041077,418.140564 393.001495,417.196075 394.389343,416.183044 
	C401.014496,422.327637 407.068268,428.457397 412.960602,434.916748 
	C411.398438,437.703033 410.013184,440.168610 408.594696,442.614929 
	C388.321106,477.578461 368.013092,512.521973 347.774628,547.505737 
	C327.952698,581.769653 308.160767,616.051025 288.450623,650.379211 
	C284.415863,657.406311 280.802612,664.675537 276.995056,671.833191 
	C266.970367,671.882751 256.945648,671.932373 246.457031,671.907654 
z"/>
<path fill="#808B95" opacity="1.000000" stroke="none" 
	d="
M367.453064,671.907043 
	C369.586060,666.493652 371.884125,660.982361 374.830170,655.842468 
	C391.597809,626.588379 408.518524,597.421997 425.390106,568.227600 
	C439.602264,543.635010 453.836945,519.055359 468.009918,494.440247 
	C469.819427,491.297516 471.316864,487.975128 473.381348,484.296204 
	C475.762146,484.731598 477.757874,485.533661 479.665710,486.507904 
	C480.918518,487.147644 482.138062,488.806793 483.210541,488.676483 
	C487.356720,488.172638 489.723969,490.145599 490.567841,492.073669 
	C494.666168,492.977112 497.569946,493.627502 500.478821,494.254242 
	C502.038727,494.590363 503.636719,494.785034 505.163635,495.228790 
	C506.587860,495.642670 507.940796,496.301788 509.325073,496.852966 
	C505.024963,503.292847 500.386841,509.535034 496.484924,516.207703 
	C481.805573,541.310852 467.372284,566.557922 452.834961,591.744202 
	C438.712616,616.211365 424.558777,640.660339 410.479401,665.152161 
	C409.418640,666.997314 408.842773,669.121155 408.013428,671.479126 
	C394.629364,671.888672 381.273376,671.934692 367.453064,671.907043 
z"/>
<path fill="#A1A9B0" opacity="1.000000" stroke="none" 
	d="
M401.019348,285.669647 
	C404.479431,278.909821 407.671478,271.996307 411.444489,265.415924 
	C431.100555,231.134216 450.899963,196.934692 470.659180,162.712158 
	C478.297577,149.482574 485.969452,136.272308 493.597687,123.036880 
	C494.165527,122.051613 494.504181,120.934235 494.970947,119.521927 
	C509.351074,119.120247 523.709595,119.074936 538.459412,119.441513 
	C537.770386,122.100571 536.834106,124.431229 535.587158,126.581726 
	C525.326599,144.277222 514.957397,161.909805 504.718872,179.617966 
	C487.155121,209.995392 469.604218,240.380646 452.193176,270.845612 
	C449.103424,276.251892 446.719086,282.061310 443.557068,287.752441 
	C429.076508,287.103455 415.047943,286.386566 401.019348,285.669647 
z"/>
<path fill="#8C969F" opacity="1.000000" stroke="none" 
	d="
M446.386230,465.812073 
	C440.831970,475.068054 435.155914,484.253448 429.743927,493.591888 
	C401.456879,542.401306 373.235565,591.248779 344.994690,640.084900 
	C339.996307,648.728455 334.978363,657.361084 330.056000,666.047791 
	C329.168701,667.613708 328.704224,669.419189 328.020813,671.477051 
	C318.971497,671.888794 309.945923,671.937561 300.481873,671.549316 
	C300.843506,669.117310 301.426453,666.998901 302.479156,665.147644 
	C309.216125,653.299744 316.041809,641.502014 322.865814,629.703735 
	C335.764679,607.402344 348.699066,585.121521 361.587250,562.813965 
	C377.551605,535.182007 393.536163,507.561401 409.403564,479.873718 
	C415.426300,469.364349 421.147552,458.682220 427.400330,448.013824 
	C429.497223,448.891449 431.553253,449.495575 432.839417,450.837555 
	C437.494904,455.695007 441.891754,460.800323 446.386230,465.812073 
z"/>
<path fill="#8C969F" opacity="1.000000" stroke="none" 
	d="
M628.992004,119.168503 
	C639.016357,119.123589 649.040771,119.078667 659.507690,119.463501 
	C659.152710,121.887405 658.581238,124.011269 657.522766,125.855644 
	C647.021484,144.153702 636.428528,162.399139 625.883240,180.671951 
	C611.518250,205.563599 597.193665,230.478592 582.811890,255.360535 
	C569.511047,278.372345 556.157654,301.353821 542.548584,324.141296 
	C539.708069,320.529083 537.687622,316.426147 534.438904,313.907440 
	C530.886963,311.153625 526.199097,309.864807 522.072693,307.589172 
	C523.006653,305.449219 523.765320,303.594604 524.758179,301.875305 
	C538.978577,277.251221 553.237610,252.649399 567.473206,228.034088 
	C584.455994,198.668549 601.488953,169.331680 618.352356,139.897736 
	C622.209290,133.165802 625.461487,126.087433 628.992004,119.168503 
z"/>
<path fill="#939DA5" opacity="1.000000" stroke="none" 
	d="
M628.527954,119.102448 
	C625.461487,126.087433 622.209290,133.165802 618.352356,139.897736 
	C601.488953,169.331680 584.455994,198.668549 567.473206,228.034088 
	C553.237610,252.649399 538.978577,277.251221 524.758179,301.875305 
	C523.765320,303.594604 523.006653,305.449219 521.725830,307.601990 
	C513.196411,304.350250 505.080170,300.737457 497.030579,296.766113 
	C497.754730,295.071533 498.338043,293.692627 499.080780,292.405701 
	C513.218994,267.907806 527.378052,243.421936 541.528442,218.931061 
	C558.425476,189.686478 575.350586,160.457947 592.174683,131.171448 
	C594.384216,127.325203 596.068604,123.177231 597.996216,119.169022 
	C608.018799,119.124802 618.041321,119.080597 628.527954,119.102448 
z"/>
<path fill="#3A4B5C" opacity="1.000000" stroke="none" 
	d="
M639.436035,671.905396 
	C644.199036,662.221985 649.255920,652.507812 654.691040,643.010071 
	C670.525208,615.340088 686.451355,587.722168 702.478638,560.163574 
	C706.448547,553.337402 710.938416,546.813538 715.513306,540.060547 
	C715.892578,556.299194 715.987427,572.628052 715.993835,588.956909 
	C716.004028,614.955688 715.876587,640.954895 716.014832,666.952820 
	C716.036011,670.936462 714.786133,672.034241 710.897705,672.011108 
	C687.233459,671.869995 663.567810,671.960327 639.436035,671.905396 
z"/>
<path fill="#9DA6AD" opacity="1.000000" stroke="none" 
	d="
M444.009033,287.684570 
	C446.719086,282.061310 449.103424,276.251892 452.193176,270.845612 
	C469.604218,240.380646 487.155121,209.995392 504.718872,179.617966 
	C514.957397,161.909805 525.326599,144.277222 535.587158,126.581726 
	C536.834106,124.431229 537.770386,122.100571 538.923096,119.511665 
	C548.685425,119.124527 558.375305,119.079147 568.524475,119.475403 
	C568.429749,121.447258 568.086548,123.098213 567.289978,124.489540 
	C555.731873,144.676895 544.131958,164.840439 532.504150,184.987762 
	C515.561340,214.344330 498.523773,243.646500 481.683533,273.061676 
	C478.425079,278.753204 475.886902,284.857117 472.554291,290.838013 
	C462.731110,289.831696 453.370056,288.758148 444.009033,287.684570 
z"/>
<path fill="#939DA5" opacity="1.000000" stroke="none" 
	d="
M427.006256,448.078857 
	C421.147552,458.682220 415.426300,469.364349 409.403564,479.873718 
	C393.536163,507.561401 377.551605,535.182007 361.587250,562.813965 
	C348.699066,585.121521 335.764679,607.402344 322.865814,629.703735 
	C316.041809,641.502014 309.216125,653.299744 302.479156,665.147644 
	C301.426453,666.998901 300.843506,669.117310 300.017822,671.475891 
	C292.635895,671.885803 285.279480,671.932068 277.459076,671.905762 
	C280.802612,664.675537 284.415863,657.406311 288.450623,650.379211 
	C308.160767,616.051025 327.952698,581.769653 347.774628,547.505737 
	C368.013092,512.521973 388.321106,477.578461 408.594696,442.614929 
	C410.013184,440.168610 411.398438,437.703033 413.267822,435.086060 
	C416.100830,437.313049 418.449463,439.716187 420.834229,442.082947 
	C422.869995,444.103302 424.947296,446.081848 427.006256,448.078857 
z"/>
<path fill="#97A0A8" opacity="1.000000" stroke="none" 
	d="
M473.016449,290.770782 
	C475.886902,284.857117 478.425079,278.753204 481.683533,273.061676 
	C498.523773,243.646500 515.561340,214.344330 532.504150,184.987762 
	C544.131958,164.840439 555.731873,144.676895 567.289978,124.489540 
	C568.086548,123.098213 568.429749,121.447258 568.988281,119.543518 
	C578.351257,119.123886 587.709717,119.077789 597.532227,119.100365 
	C596.068604,123.177231 594.384216,127.325203 592.174683,131.171448 
	C575.350586,160.457947 558.425476,189.686478 541.528442,218.931061 
	C527.378052,243.421936 513.218994,267.907806 499.080780,292.405701 
	C498.338043,293.692627 497.754730,295.071533 496.649994,296.720337 
	C494.981354,296.712585 493.759949,296.392090 492.470917,296.053864 
	C492.000732,297.831818 491.606842,299.321228 490.796661,302.384918 
	C488.624237,299.996246 487.376831,298.383423 485.883362,297.045288 
	C484.124969,295.469788 481.645599,292.576691 480.372101,292.992279 
	C476.967834,294.103210 475.118408,292.609680 473.016449,290.770782 
z"/>
<path fill="#87919B" opacity="1.000000" stroke="none" 
	d="
M542.827393,324.348663 
	C556.157654,301.353821 569.511047,278.372345 582.811890,255.360535 
	C597.193665,230.478592 611.518250,205.563599 625.883240,180.671951 
	C636.428528,162.399139 647.021484,144.153702 657.522766,125.855644 
	C658.581238,124.011269 659.152710,121.887405 659.971741,119.529785 
	C667.016907,119.121513 674.040588,119.076698 681.528442,119.096054 
	C679.466064,124.160828 677.167419,129.292740 674.375549,134.140656 
	C656.537964,165.115326 638.563232,196.011063 620.689880,226.965256 
	C604.977661,254.176666 589.360474,281.442963 573.657410,308.659760 
	C566.927795,320.323639 560.119324,331.942596 553.252808,343.526337 
	C552.467102,344.851868 551.074402,345.817566 549.682739,346.618256 
	C551.254211,340.937134 550.466919,336.045166 547.123291,331.442078 
	C545.504333,329.213440 544.247925,326.721436 542.827393,324.348663 
z"/>
<path fill="#6F7C87" opacity="1.000000" stroke="none" 
	d="
M457.457977,671.902100 
	C462.025421,662.679443 466.924805,653.449768 472.114349,644.386108 
	C487.793091,617.002808 503.585052,589.684326 519.331970,562.340027 
	C529.692017,544.349792 540.061035,526.364685 550.387146,508.355072 
	C551.115051,507.085632 551.521606,505.631958 552.467712,504.039734 
	C554.471619,504.865082 555.958679,506.507843 557.547058,503.543976 
	C558.162659,502.395172 559.707458,501.681000 560.928345,500.930603 
	C566.890015,497.266571 572.344971,501.252930 578.007690,502.130493 
	C575.703186,506.875458 573.663330,511.771790 571.050232,516.340271 
	C556.687866,541.449951 542.194458,566.484863 527.727783,591.534851 
	C514.840576,613.849792 501.912567,636.141174 489.044647,658.467163 
	C486.641235,662.637085 484.437225,666.921936 482.066895,671.493835 
	C473.969269,671.879639 465.945953,671.925354 457.457977,671.902100 
z"/>
<path fill="#FDFDFE" opacity="1.000000" stroke="none" 
	d="
M578.337585,501.960266 
	C572.344971,501.252930 566.890015,497.266571 560.928345,500.930603 
	C559.707458,501.681000 558.162659,502.395172 557.547058,503.543976 
	C555.958679,506.507843 554.471619,504.865082 552.512329,503.639832 
	C547.455444,499.281616 544.128723,502.808777 540.796753,505.566437 
	C534.626099,500.810211 527.688660,499.364716 520.162170,499.290161 
	C516.754272,499.256409 513.358643,497.991333 509.641235,497.068909 
	C507.940796,496.301788 506.587860,495.642670 505.163635,495.228790 
	C503.636719,494.785034 502.038727,494.590363 500.478821,494.254242 
	C497.569946,493.627502 494.666168,492.977112 490.567841,492.073669 
	C489.723969,490.145599 487.356720,488.172638 483.210541,488.676483 
	C482.138062,488.806793 480.918518,487.147644 479.665710,486.507904 
	C477.757874,485.533661 475.762146,484.731598 473.401917,483.929443 
	C466.259186,475.240021 456.361206,471.029846 446.710571,465.903748 
	C441.891754,460.800323 437.494904,455.695007 432.839417,450.837555 
	C431.553253,449.495575 429.497223,448.891449 427.400330,448.013855 
	C424.947296,446.081848 422.869995,444.103302 420.834229,442.082947 
	C418.449463,439.716187 416.100830,437.313049 413.429260,434.756409 
	C407.068268,428.457397 401.014496,422.327637 394.710938,416.003387 
	C387.458221,410.541595 380.666077,404.945496 373.309418,400.230072 
	C371.385834,398.997162 367.707123,400.502563 364.116302,400.554504 
	C361.927948,400.214935 360.460327,399.988007 358.987122,399.942535 
	C354.000366,399.788513 351.462006,395.610382 352.586121,390.874603 
	C354.763000,381.703217 362.298309,379.281952 369.648743,377.270386 
	C373.055786,376.337982 377.053986,377.363983 380.364532,380.460144 
	C382.811615,382.748779 386.738312,383.455414 390.427155,384.951538 
	C395.283844,385.128357 399.782837,385.739716 404.141388,385.205353 
	C413.472290,384.061371 422.730591,382.325165 432.474762,380.873718 
	C440.236237,380.488678 447.630432,380.621277 454.822449,379.479858 
	C462.316833,378.290436 469.616180,375.872162 477.442505,374.071716 
	C481.448517,373.350464 485.032104,372.623047 488.567261,371.708527 
	C489.898132,371.364288 491.067871,370.264587 492.395294,370.062531 
	C497.890045,369.226105 503.451965,368.789154 508.908508,367.772125 
	C510.340637,367.505127 511.519836,365.720459 512.746948,364.560547 
	C513.911621,363.459656 514.784973,361.856171 516.138916,361.186005 
	C520.432251,359.061096 525.200745,357.762177 529.214172,355.236206 
	C535.707397,351.149506 537.392395,343.979706 532.715881,338.538300 
	C526.161499,330.911926 519.765747,322.724609 509.065552,319.584412 
	C503.709290,317.618439 498.258698,316.544159 493.540558,314.072021 
	C487.399139,310.854187 479.619263,312.102020 474.387054,306.623077 
	C473.809631,306.018402 472.174438,306.423859 470.579437,306.278015 
	C467.191467,305.906799 464.256317,305.589813 461.315796,305.335205 
	C452.546326,304.576050 443.774719,303.841339 434.682526,302.918579 
	C433.081940,302.154510 431.800323,301.068665 430.524109,301.075012 
	C426.330505,301.095825 421.853912,302.592163 418.000122,301.574615 
	C406.616791,298.568878 395.206696,304.748077 383.515930,300.829498 
	C372.823792,301.492767 362.177185,299.584412 352.828278,305.781860 
	C352.117035,306.253357 350.880615,305.959045 349.887573,305.974457 
	C345.843109,306.037384 339.728851,314.222168 340.193542,318.234375 
	C340.927948,324.575989 341.104431,330.980774 341.583435,337.353821 
	C342.376495,347.905365 343.222382,358.452942 344.014160,369.411926 
	C342.994629,373.677521 341.442139,377.485901 341.113129,381.397186 
	C339.302673,402.918579 337.791351,424.465179 336.177429,446.003113 
	C336.856934,453.926117 337.889954,461.839050 338.116211,469.774963 
	C338.341309,477.669281 337.779083,485.587463 337.505066,493.493225 
	C337.453674,494.976807 337.041199,496.445587 336.953644,497.930511 
	C336.526611,505.172424 335.481049,506.065186 326.871918,505.614044 
	C327.148651,502.734192 327.096710,499.790436 327.762970,497.019379 
	C329.489258,489.839600 326.693268,483.348206 325.307922,476.585114 
	C324.275360,471.544556 321.324615,466.824249 323.463318,461.061188 
	C324.121826,459.286652 321.229767,456.194458 319.838470,453.366516 
	C319.799133,452.535126 319.764557,451.978302 319.988739,451.560272 
	C322.804138,446.310822 325.606384,441.352356 320.480255,435.482483 
	C319.543427,434.409698 322.475433,430.228546 323.166718,427.372192 
	C323.658875,425.338440 324.003723,422.904968 323.346069,421.023193 
	C321.102478,414.603516 323.199432,408.578705 324.400116,402.457489 
	C324.844177,400.193787 326.596222,397.704620 326.047516,395.812561 
	C323.788910,388.024231 325.203033,380.263855 325.646667,372.545807 
	C325.999023,366.415527 327.415405,360.346436 328.396362,354.011444 
	C322.192322,353.083618 322.794952,347.042999 323.276459,343.529327 
	C324.559387,334.167908 323.080658,325.030609 323.167664,315.818909 
	C323.203522,312.019165 322.366211,310.012756 319.333008,307.998413 
	C316.415802,305.521637 313.879547,304.451538 310.653198,307.135132 
	C309.577515,308.029846 307.463776,308.187317 305.943268,307.942993 
	C300.883606,307.129944 297.218903,308.799774 294.705688,313.243805 
	C294.232452,314.080688 293.405029,314.717285 292.573273,315.630432 
	C291.183411,314.933716 289.916870,314.188904 288.569672,313.643280 
	C283.794403,311.709381 279.920227,308.980408 280.579468,303.115265 
	C281.125946,298.253571 287.884949,292.532135 293.380676,292.064972 
	C302.002563,291.332092 310.671021,291.016876 319.245422,289.935547 
	C321.823608,289.610413 325.868500,287.706909 326.275452,285.869537 
	C327.460602,280.518524 330.848206,279.399292 335.636139,278.847107 
	C340.082977,278.376007 342.744873,279.679108 344.399017,283.844971 
	C346.076752,288.070251 349.813293,289.318420 353.849060,286.934875 
	C358.089874,284.430176 362.145569,284.891876 366.720734,285.806915 
	C370.645508,286.591888 374.872589,285.840088 378.966278,285.811401 
	C386.046265,285.761780 393.126495,285.745819 400.612976,285.692688 
	C415.047943,286.386566 429.076508,287.103455 443.557068,287.752441 
	C453.370056,288.758148 462.731110,289.831696 472.554291,290.838013 
	C475.118408,292.609680 476.967834,294.103210 480.372101,292.992279 
	C481.645599,292.576691 484.124969,295.469788 485.883362,297.045288 
	C487.376831,298.383423 488.624237,299.996246 490.796661,302.384918 
	C491.606842,299.321228 492.000732,297.831818 492.470917,296.053864 
	C493.759949,296.392090 494.981354,296.712585 496.583313,297.078857 
	C505.080170,300.737457 513.196411,304.350250 521.659546,307.950256 
	C526.199097,309.864807 530.886963,311.153625 534.438904,313.907440 
	C537.687622,316.426147 539.708069,320.529083 542.548584,324.141296 
	C544.247925,326.721436 545.504333,329.213440 547.123291,331.442078 
	C550.466919,336.045166 551.254211,340.937134 549.343689,346.652649 
	C548.480774,348.408813 547.676453,349.798676 546.459534,351.666809 
	C541.147095,357.058685 536.389709,362.128448 531.268555,366.799408 
	C529.526855,368.388123 526.963196,369.458221 524.609863,369.916412 
	C519.285217,370.953156 513.607361,370.978516 510.542175,377.057098 
	C505.703735,377.488800 501.181122,377.398041 496.992065,378.535614 
	C492.774170,379.681030 489.022736,383.123688 484.827423,383.649750 
	C476.648621,384.675262 469.866882,387.802094 463.698242,393.195618 
	C459.814148,390.815491 456.521484,387.328491 451.824066,390.940735 
	C451.211670,391.411652 449.910583,390.904877 448.947235,391.015045 
	C443.417816,391.647339 438.124756,394.600037 432.326538,392.689270 
	C432.087708,392.610535 431.722656,393.024994 431.413940,393.029114 
	C429.909943,393.049286 428.403442,392.956146 426.901093,393.004761 
	C425.704834,393.043457 424.181671,392.798767 423.375397,393.420868 
	C419.259583,396.596710 414.789917,396.257874 410.061493,395.546509 
	C407.291199,395.129761 404.406921,395.470551 401.573944,395.470551 
	C401.392090,396.009277 401.210205,396.548004 401.028351,397.086731 
	C408.148804,404.579407 415.048920,412.299133 422.460419,419.491852 
	C428.227997,425.089172 436.183014,428.396698 439.972961,436.503204 
	C442.461212,440.971222 445.092682,444.999695 447.184143,449.291351 
	C448.451172,451.891296 449.934631,453.373657 452.849152,452.931122 
	C458.223022,452.115204 462.549042,453.907013 466.132904,458.330383 
	C470.462189,462.732880 473.686523,468.049530 479.990448,469.471466 
	C486.027710,472.405182 492.065002,475.338898 498.492432,478.328064 
	C505.537537,480.631073 511.563599,484.528564 519.169006,484.244080 
	C522.628296,484.114746 525.778198,488.491913 530.419861,486.394531 
	C531.114258,487.572205 531.433167,488.752411 531.537048,489.136902 
	C539.093750,488.728699 545.996765,487.937469 552.878845,488.090240 
	C561.434265,488.280182 569.948669,488.841522 578.657593,486.302429 
	C585.112732,484.725464 591.223633,483.313629 597.359009,482.017731 
	C598.965393,481.678467 600.647766,481.699310 601.954956,481.180145 
	C604.509094,480.128235 607.226379,479.347961 609.567810,477.941895 
	C611.585815,476.730103 613.175720,474.805389 614.867188,473.275238 
	C617.332153,477.142151 616.237915,480.616333 612.047119,483.544006 
	C609.606506,485.249054 607.427795,487.324799 605.039612,489.111206 
	C604.176636,489.756683 602.707947,490.704651 602.092651,490.389221 
	C597.979065,488.280487 596.421082,491.075775 594.885864,493.880341 
	C593.367065,496.654999 591.358154,498.269745 588.025208,498.784790 
	C584.827515,499.278992 581.780579,500.748871 578.337585,501.960266 
z"/>
<path fill="#A1A9B0" opacity="1.000000" stroke="none" 
	d="
M390.005798,384.866821 
	C386.738312,383.455414 382.811615,382.748779 380.364532,380.460144 
	C377.053986,377.363983 373.055786,376.337982 369.648743,377.270386 
	C362.298309,379.281952 354.763000,381.703217 352.586121,390.874603 
	C351.462006,395.610382 354.000366,399.788513 358.987122,399.942535 
	C360.460327,399.988007 361.927948,400.214935 363.738098,400.571503 
	C355.721313,415.156921 347.377167,429.536865 338.974152,443.882385 
	C338.507355,444.679352 337.553070,445.190735 336.501526,445.919067 
	C337.791351,424.465179 339.302673,402.918579 341.113129,381.397186 
	C341.442139,377.485901 342.994629,373.677521 344.350769,369.338867 
	C346.038483,367.452393 347.680420,366.237091 348.627167,364.615845 
	C358.240570,348.152802 367.820953,331.669128 377.219971,315.083191 
	C379.801514,310.527771 381.745453,305.611023 383.981995,300.860077 
	C395.206696,304.748077 406.616791,298.568878 418.000122,301.574615 
	C421.853912,302.592163 426.330505,301.095825 430.524109,301.075012 
	C431.800323,301.068665 433.081940,302.154510 434.659851,303.282806 
	C434.602814,304.920227 434.428070,306.119690 433.864594,307.094421 
	C421.179443,329.038452 408.407928,350.932709 395.773132,372.905609 
	C393.572479,376.732727 391.914429,380.871826 390.005798,384.866821 
z"/>
<path fill="#87919B" opacity="1.000000" stroke="none" 
	d="
M480.345764,469.258057 
	C473.686523,468.049530 470.462189,462.732880 466.200562,457.978271 
	C466.351135,456.704376 466.492889,456.031311 466.820679,455.466125 
	C478.315155,435.643890 489.904602,415.876160 501.290710,395.991974 
	C504.809631,389.846680 507.781830,383.388336 511.004333,377.073334 
	C513.607361,370.978516 519.285217,370.953156 524.609863,369.916412 
	C526.963196,369.458221 529.526855,368.388123 531.268555,366.799408 
	C536.389709,362.128448 541.147095,357.058685 546.326538,351.986633 
	C546.375488,353.611389 546.652222,355.679871 545.835022,357.133453 
	C538.347351,370.453003 530.690552,383.677826 523.042908,396.907043 
	C509.659393,420.058472 496.252747,443.196564 482.829071,466.324768 
	C482.256714,467.310883 481.416504,468.141541 480.345764,469.258057 
z"/>
<path fill="#9DA6AD" opacity="1.000000" stroke="none" 
	d="
M390.427124,384.951538 
	C391.914429,380.871826 393.572479,376.732727 395.773132,372.905609 
	C408.407928,350.932709 421.179443,329.038452 433.864594,307.094421 
	C434.428070,306.119690 434.602814,304.920227 434.981293,303.461243 
	C443.774719,303.841339 452.546326,304.576050 461.315796,305.335205 
	C464.256317,305.589813 467.191467,305.906799 470.569824,306.640808 
	C470.595673,308.501160 470.442932,310.067261 469.726746,311.308136 
	C458.465759,330.817535 447.040253,350.232727 435.904388,369.812805 
	C434.009430,373.144653 433.284271,377.141754 432.018677,380.831512 
	C422.730591,382.325165 413.472290,384.061371 404.141388,385.205353 
	C399.782837,385.739716 395.283844,385.128357 390.427124,384.951538 
z"/>
<path fill="#939DA5" opacity="1.000000" stroke="none" 
	d="
M432.474792,380.873718 
	C433.284271,377.141754 434.009430,373.144653 435.904388,369.812805 
	C447.040253,350.232727 458.465759,330.817535 469.726746,311.308136 
	C470.442932,310.067261 470.595673,308.501160 471.020203,306.723572 
	C472.174438,306.423859 473.809631,306.018402 474.387054,306.623077 
	C479.619263,312.102020 487.399139,310.854187 493.540558,314.072021 
	C498.258698,316.544159 503.709290,317.618439 508.708069,319.678223 
	C506.903809,322.002167 504.896942,323.767670 503.602051,325.954712 
	C496.522644,337.911987 489.541534,349.929413 482.698273,362.023285 
	C480.527832,365.859039 478.885071,369.993439 477.000824,373.991180 
	C469.616180,375.872162 462.316833,378.290436 454.822449,379.479858 
	C447.630432,380.621277 440.236237,380.488678 432.474792,380.873718 
z"/>
<path fill="#8C969F" opacity="1.000000" stroke="none" 
	d="
M510.542175,377.057098 
	C507.781830,383.388336 504.809631,389.846680 501.290710,395.991974 
	C489.904602,415.876160 478.315155,435.643890 466.820679,455.466125 
	C466.492889,456.031311 466.351135,456.704376 466.054932,457.679230 
	C462.549042,453.907013 458.223022,452.115204 452.849152,452.931122 
	C449.934631,453.373657 448.451172,451.891296 447.184143,449.291351 
	C445.092682,444.999695 442.461212,440.971222 440.155701,436.197998 
	C448.174347,421.499695 456.094666,407.435181 464.015015,393.370697 
	C469.866882,387.802094 476.648621,384.675262 484.827423,383.649750 
	C489.022736,383.123688 492.774170,379.681030 496.992065,378.535614 
	C501.181122,377.398041 505.703735,377.488800 510.542175,377.057098 
z"/>
<path fill="#8C969F" opacity="1.000000" stroke="none" 
	d="
M477.442505,374.071716 
	C478.885071,369.993439 480.527832,365.859039 482.698273,362.023285 
	C489.541534,349.929413 496.522644,337.911987 503.602051,325.954712 
	C504.896942,323.767670 506.903809,322.002167 508.939514,319.948242 
	C519.765747,322.724609 526.161499,330.911926 532.715881,338.538300 
	C537.392395,343.979706 535.707397,351.149506 529.214172,355.236206 
	C525.200745,357.762177 520.432251,359.061096 516.138916,361.186005 
	C514.784973,361.856171 513.911621,363.459656 512.746948,364.560547 
	C511.519836,365.720459 510.340637,367.505127 508.908508,367.772125 
	C503.451965,368.789154 497.890045,369.226105 492.395294,370.062531 
	C491.067871,370.264587 489.898132,371.364288 488.567261,371.708527 
	C485.032104,372.623047 481.448517,373.350464 477.442505,374.071716 
z"/>
<path fill="#A8AFB5" opacity="1.000000" stroke="none" 
	d="
M383.515930,300.829498 
	C381.745453,305.611023 379.801514,310.527771 377.219971,315.083191 
	C367.820953,331.669128 358.240570,348.152802 348.627167,364.615845 
	C347.680420,366.237091 346.038483,367.452393 344.382629,368.929138 
	C343.222382,358.452942 342.376495,347.905365 341.583435,337.353821 
	C341.104431,330.980774 340.927948,324.575989 340.193542,318.234375 
	C339.728851,314.222168 345.843109,306.037384 349.887573,305.974457 
	C350.880615,305.959045 352.117035,306.253357 352.828278,305.781860 
	C362.177185,299.584412 372.823792,301.492767 383.515930,300.829498 
z"/>
<path fill="#939DA5" opacity="1.000000" stroke="none" 
	d="
M463.698242,393.195618 
	C456.094666,407.435181 448.174347,421.499695 440.071289,435.869385 
	C436.183014,428.396698 428.227997,425.089172 422.460419,419.491852 
	C415.048920,412.299133 408.148804,404.579407 401.028351,397.086731 
	C401.210205,396.548004 401.392090,396.009277 401.573944,395.470551 
	C404.406921,395.470551 407.291199,395.129761 410.061493,395.546509 
	C414.789917,396.257874 419.259583,396.596710 423.375397,393.420868 
	C424.181671,392.798767 425.704834,393.043457 426.901093,393.004761 
	C428.403442,392.956146 429.909943,393.049286 431.413940,393.029114 
	C431.722656,393.024994 432.087708,392.610535 432.326538,392.689270 
	C438.124756,394.600037 443.417816,391.647339 448.947235,391.015045 
	C449.910583,390.904877 451.211670,391.411652 451.824066,390.940735 
	C456.521484,387.328491 459.814148,390.815491 463.698242,393.195618 
z"/>
</svg>